<?xml version="1.0" standalone="no"?>
<!DOCTYPE svg PUBLIC "-//W3C//DTD SVG 20010904//EN"
 "http://www.w3.org/TR/2001/REC-SVG-20010904/DTD/svg10.dtd">
<svg version="1.0" xmlns="http://www.w3.org/2000/svg"
 width="447.000000pt" height="447.000000pt" viewBox="0 0 447.000000 447.000000"
 preserveAspectRatio="xMidYMid meet">
<metadata>
Created by potrace 1.16, written by Peter Selinger 2001-2019
</metadata>
<g transform="translate(0.000000,447.000000) scale(0.100000,-0.100000)"
fill="whitesmoke" stroke="none">
<path d="M1943 4384 c-583 -79 -1104 -387 -1453 -859 -216 -292 -350 -621
-405 -990 -22 -150 -22 -453 0 -600 48 -318 148 -595 306 -845 353 -561 919
-923 1572 -1006 102 -13 178 -15 332 -11 212 5 303 18 500 68 753 191 1369
821 1548 1584 43 183 58 311 58 508 0 213 -18 354 -66 542 -44 171 -74 253
-151 411 -138 284 -320 514 -574 726 -307 255 -688 420 -1093 473 -145 19
-433 18 -574 -1z m577 -130 c111 -16 298 -60 390 -92 75 -26 248 -106 334
-155 400 -225 722 -598 892 -1032 140 -358 175 -765 99 -1142 -140 -691 -631
-1264 -1295 -1511 -375 -139 -805 -163 -1195 -66 -451 112 -853 377 -1136 749
-409 537 -524 1232 -309 1875 72 217 214 477 348 640 49 58 213 225 272 275
260 222 613 387 965 450 179 33 446 36 635 9z"/>
<path d="M2068 4183 c-27 -7 -22 -48 7 -67 13 -9 48 -22 77 -30 73 -20 80 -23
103 -54 18 -24 20 -43 20 -162 0 -113 -4 -146 -22 -200 -12 -36 -27 -92 -33
-125 -20 -114 -45 -92 -45 40 0 65 5 93 28 147 39 95 38 170 -3 227 -34 47
-55 57 -132 66 -76 9 -102 22 -136 64 -33 41 -106 71 -174 71 -35 0 -41 -4
-52 -32 -8 -18 -19 -66 -26 -106 -6 -39 -20 -82 -30 -94 l-18 -22 -21 42 c-23
46 -28 101 -9 120 24 24 -32 12 -140 -29 -59 -23 -111 -45 -116 -50 -4 -4 2
-13 15 -20 13 -7 49 -30 79 -52 40 -31 65 -41 97 -43 44 -3 80 -22 122 -68 21
-22 25 -40 32 -123 4 -54 15 -123 24 -153 8 -30 24 -88 34 -129 11 -40 40
-109 65 -152 58 -99 60 -120 8 -83 -32 22 -112 163 -112 198 0 16 -11 48 -24
70 -20 34 -26 64 -35 180 -12 149 -23 181 -66 192 -51 13 -57 -21 -25 -126 19
-58 20 -80 14 -240 -5 -144 -3 -192 11 -270 10 -52 20 -107 22 -122 4 -20 1
-28 -9 -28 -40 0 -57 54 -103 330 -31 187 -77 345 -111 381 -14 14 -29 43 -35
63 -6 21 -19 46 -31 58 l-20 20 -29 -28 -29 -28 -39 38 c-36 35 -40 37 -64 24
-26 -13 -210 -188 -204 -194 1 -1 26 15 54 37 50 39 52 40 80 26 16 -9 45 -18
66 -22 112 -21 258 -306 292 -570 20 -165 50 -211 165 -255 68 -26 80 -42 56
-75 -14 -19 -15 -19 -82 0 -60 18 -73 26 -111 73 -31 38 -43 62 -43 85 0 20
-9 42 -25 59 -21 23 -24 34 -23 100 2 94 -26 276 -45 296 -24 23 -34 8 -41
-62 -3 -36 -14 -84 -23 -108 -11 -31 -16 -79 -17 -168 -1 -118 1 -128 27 -180
16 -31 65 -93 112 -141 78 -79 105 -119 105 -154 0 -22 -199 186 -231 242 -19
32 -37 89 -51 154 -19 93 -20 113 -9 207 6 58 18 140 27 183 l16 78 -26 56
c-28 61 -53 77 -101 64 -40 -12 -58 -4 -90 37 -23 30 -31 34 -67 32 -37 -3
-49 -13 -161 -128 -211 -216 -301 -356 -400 -616 -84 -222 -116 -395 -124
-664 -5 -186 -4 -201 22 -315 15 -66 38 -169 52 -230 24 -110 43 -164 113
-326 37 -86 62 -127 180 -294 129 -184 186 -253 253 -306 38 -30 108 -85 156
-122 178 -141 235 -180 294 -204 191 -78 488 -179 567 -192 208 -35 340 -40
575 -20 147 12 196 23 381 85 167 56 474 224 574 315 19 17 67 58 105 90 108
89 287 307 372 454 22 39 73 135 113 215 61 122 79 170 111 298 22 85 39 158
39 163 0 5 -20 9 -45 9 -41 0 -47 -3 -70 -40 -36 -58 -56 -53 -94 24 -17 35
-31 67 -31 70 0 4 -12 23 -26 41 -19 25 -26 48 -27 84 -2 41 -8 56 -33 83 -40
41 -66 134 -44 148 23 15 31 12 66 -26 46 -48 70 -106 78 -182 3 -35 8 -68 12
-73 3 -5 23 -9 45 -9 48 0 58 18 36 63 -9 18 -19 48 -22 68 -3 20 -19 53 -35
75 -35 46 -38 64 -10 64 28 0 70 -59 92 -129 14 -46 23 -61 37 -61 21 0 31 35
31 111 0 66 -25 125 -58 138 -65 25 -212 62 -269 68 -44 4 -63 10 -63 20 0 7
7 16 15 19 44 17 -16 64 -82 64 -21 0 -51 -9 -68 -20 -66 -44 -165 -11 -150
49 15 57 18 84 9 79 -69 -37 -154 -59 -154 -40 0 6 17 21 38 33 53 33 61 47
62 106 0 42 -4 54 -19 63 -28 14 -29 14 -45 -25 -12 -27 -28 -41 -68 -60 -29
-14 -69 -25 -88 -25 -19 0 -53 -11 -75 -25 -49 -30 -59 -31 -45 -6 5 11 25 24
43 30 19 7 45 23 57 36 17 18 34 25 61 25 46 0 57 14 69 83 5 30 18 74 30 98
17 32 21 53 16 85 -4 32 -1 47 11 59 13 14 15 31 9 110 -6 89 -5 95 15 106 19
10 21 17 16 65 -5 46 -2 61 19 97 29 51 32 87 7 87 -27 0 -36 -10 -75 -75 -32
-54 -37 -72 -47 -175 -14 -144 -49 -344 -67 -388 -15 -37 -55 -57 -84 -42 -25
13 -22 14 -65 -20 -39 -31 -75 -39 -75 -17 0 6 17 21 38 32 70 37 47 95 -24
61 -43 -20 -44 -20 -44 4 0 42 -71 54 -101 16 -14 -18 -31 -26 -61 -28 -46 -3
-57 -17 -33 -41 8 -9 15 -20 15 -25 0 -5 16 -22 36 -37 22 -17 47 -50 61 -83
23 -49 25 -62 18 -126 -11 -106 -9 -143 10 -230 16 -68 17 -85 5 -129 -7 -28
-14 -92 -15 -142 -1 -55 -8 -104 -18 -127 -9 -21 -19 -59 -23 -85 -4 -26 -13
-58 -21 -69 -10 -16 -12 -36 -7 -72 7 -56 -7 -92 -36 -92 -31 0 -70 -22 -70
-40 0 -73 -144 -35 -202 54 -13 19 -32 36 -43 38 -22 3 -42 61 -47 136 -5 74
19 68 115 -31 88 -90 130 -122 147 -112 16 10 12 48 -7 75 -10 14 -25 43 -33
65 -11 28 -25 44 -47 54 -18 8 -37 27 -44 43 -7 16 -27 41 -46 55 -19 15 -45
48 -58 73 -44 86 -92 76 -61 -12 17 -50 17 -52 0 -65 -23 -17 -31 -16 -87 3
-35 12 -50 13 -67 4 -31 -17 -57 -3 -70 36 -7 20 -22 40 -36 46 -36 17 -30 38
10 38 30 0 35 4 41 31 5 24 2 35 -14 50 -22 21 -21 29 14 98 15 27 16 39 6 71
-12 40 -15 128 -5 154 16 42 79 -13 139 -120 19 -34 47 -76 60 -93 57 -67 187
-81 258 -26 36 26 38 27 56 10 23 -20 54 -17 59 7 2 9 -7 25 -19 35 -12 10
-43 37 -69 60 -25 23 -59 44 -75 48 -57 13 -61 15 -45 25 27 17 57 11 95 -20
56 -45 95 -36 95 22 0 15 5 39 12 53 9 21 9 28 -3 40 -12 12 -24 12 -84 -1
-44 -10 -103 -14 -157 -12 -82 4 -93 7 -188 56 -127 65 -153 66 -260 13 -43
-22 -93 -42 -111 -46 -35 -6 -111 3 -212 26 -51 12 -63 11 -112 -6 -30 -10
-58 -15 -63 -11 -11 12 46 56 74 56 13 0 41 7 60 15 28 11 35 19 32 37 -3 20
-9 23 -48 22 -25 0 -60 -4 -79 -9 -47 -11 -33 8 28 39 64 33 107 79 120 131
28 112 160 240 272 264 70 15 142 48 137 63 -2 6 -17 16 -34 21 -35 12 -64 35
-64 54 0 7 -16 30 -35 52 -39 43 -50 84 -61 228 -7 93 2 133 31 133 11 0 15
-13 15 -55 0 -60 16 -79 47 -54 13 12 15 29 9 117 -3 57 -12 114 -18 126 -7
13 -51 56 -98 94 -57 48 -88 81 -96 104 -16 48 -40 48 -53 1 -17 -59 -14 -69
34 -123 74 -84 74 -82 63 -275 -5 -93 -14 -180 -19 -192 -14 -36 -37 -28 -50
18 -11 34 -10 44 3 67 23 39 11 94 -22 102 -19 4 -26 13 -28 38 -2 18 1 32 6
32 16 0 32 49 26 80 -4 16 -18 41 -31 54 -14 14 -29 42 -34 63 -12 51 -11 240
1 248 20 12 84 -28 154 -97 40 -40 95 -95 123 -121 48 -44 52 -53 62 -115 6
-37 10 -137 9 -222 l-3 -155 50 -78 c28 -42 60 -96 73 -120 28 -54 39 -61 133
-92 43 -15 97 -41 121 -59 90 -69 240 -123 309 -111 45 8 54 17 40 43 -7 14
-5 27 10 51 20 34 25 71 10 86 -5 6 -11 24 -13 40 -2 22 -8 30 -23 30 -16 0
-22 -9 -28 -50 -11 -62 -19 -79 -42 -83 -31 -7 -39 14 -16 39 30 32 26 47 -14
55 -19 3 -35 9 -35 13 0 4 14 23 31 43 19 22 51 87 80 164 62 160 65 226 9
192 -18 -12 -36 -52 -85 -190 -17 -49 -49 -97 -59 -88 -3 3 2 35 10 70 8 36
22 106 29 155 25 165 91 340 137 362 12 7 64 13 115 15 80 4 96 8 130 31 22
15 52 27 69 27 l29 0 -25 20 c-87 68 -380 180 -524 200 -104 15 -106 14 -106
-72 l0 -57 84 2 c59 1 89 -2 98 -11 20 -21 -14 -35 -116 -49 -48 -7 -94 -18
-102 -24 -8 -7 -14 -31 -14 -58 -1 -68 -135 -382 -147 -344 -5 13 21 145 42
217 8 27 15 63 15 79 0 26 -3 29 -25 23 l-25 -6 0 117 c0 145 -14 181 -75 200
-39 11 -162 15 -197 6z m638 -297 c4 -9 -17 -38 -55 -74 -68 -67 -78 -99 -33
-104 26 -3 27 -4 24 -63 -5 -115 -33 -300 -50 -334 -24 -49 -38 -49 -45 -1 -3
23 -8 44 -11 47 -14 14 -55 -11 -84 -52 -17 -25 -38 -45 -46 -45 -19 0 -38 61
-31 96 13 58 107 317 132 362 71 130 179 220 199 168z m-1790 -411 c8 -20 -50
-140 -121 -250 -80 -125 -137 -234 -133 -259 4 -29 47 -33 80 -7 14 12 41 58
63 108 36 84 111 228 140 266 17 24 55 14 55 -14 0 -17 -130 -261 -151 -283
-15 -17 -10 -66 8 -73 32 -12 66 22 125 126 32 58 63 111 69 117 16 20 39 5
38 -25 -1 -25 -11 -43 -87 -157 -41 -61 -39 -91 8 -120 19 -13 58 -41 85 -64
28 -23 66 -51 85 -64 19 -12 42 -36 50 -53 19 -40 66 -93 83 -93 7 0 35 -22
61 -50 30 -32 56 -50 71 -50 36 0 47 -59 23 -117 -6 -15 -14 -66 -17 -113 l-6
-85 -42 -1 c-22 -1 -49 -4 -58 -8 -9 -3 -33 4 -55 16 -34 20 -41 21 -64 8 -21
-11 -30 -11 -50 -1 -13 7 -32 11 -42 8 -11 -3 -29 -8 -41 -12 -18 -5 -23 -2
-23 13 0 26 25 46 51 39 26 -7 115 74 106 97 -7 18 9 32 50 40 36 8 43 21 36
60 -8 42 -44 61 -89 46 -30 -10 -40 -21 -59 -64 -28 -63 -57 -90 -113 -107
-39 -11 -48 -10 -111 16 -112 45 -231 28 -231 -33 0 -21 38 -32 118 -32 67 0
132 -36 132 -73 0 -3 -48 -5 -107 -4 -162 1 -224 -14 -310 -76 -40 -29 -92
-64 -117 -79 -72 -43 -81 -64 -66 -153 7 -41 15 -75 17 -75 3 0 30 22 61 50
31 27 89 77 127 110 98 85 191 130 286 137 66 5 77 3 102 -17 42 -34 41 -36
-49 -107 -23 -18 -53 -33 -67 -33 -13 0 -30 -7 -38 -16 -21 -25 -66 -44 -106
-44 -92 -1 -234 -50 -277 -97 -32 -34 -33 -53 -3 -81 18 -17 22 -30 19 -53 -3
-22 2 -37 18 -54 21 -22 21 -27 10 -55 -7 -17 -17 -33 -22 -36 -13 -8 -61 106
-91 216 -33 121 -51 294 -34 329 8 17 40 36 105 64 65 29 108 55 146 91 54 51
54 52 61 125 6 57 4 75 -6 82 -25 16 -44 5 -64 -38 -11 -24 -25 -43 -32 -43
-20 0 -42 -29 -53 -69 -6 -22 -17 -42 -25 -45 -23 -8 -46 4 -41 23 30 107 38
161 27 194 -9 27 -9 51 0 99 6 35 13 73 15 85 4 21 39 41 51 29 4 -3 0 -30 -7
-60 -7 -30 -10 -61 -7 -70 11 -29 46 -18 73 24 38 57 59 50 59 -20 0 -52 1
-54 33 -62 28 -8 32 -13 32 -43 0 -48 23 -51 120 -19 l81 28 77 -20 c42 -10
83 -19 91 -19 8 0 19 21 28 55 7 30 25 72 38 92 30 45 25 60 -24 83 -60 26
-74 19 -90 -48 -12 -54 -16 -58 -39 -55 -21 2 -33 17 -64 78 -26 52 -50 83
-76 101 -35 24 -37 28 -34 72 3 42 1 48 -22 58 -13 6 -33 8 -43 5 -10 -4 -61
-9 -113 -10 -106 -3 -126 -9 -133 -37 -6 -21 -37 -25 -67 -9 -16 9 -12 22 54
173 68 155 145 299 166 312 5 3 12 -6 16 -20 5 -20 -2 -40 -30 -83 -49 -75
-126 -231 -126 -253 0 -22 33 -33 59 -20 10 6 43 55 71 108 176 328 257 463
278 463 7 0 15 -7 18 -15z m814 -969 c14 -18 -15 -90 -48 -120 -19 -16 -25
-17 -52 -6 -30 12 -50 37 -50 60 0 6 16 27 36 46 40 37 92 46 114 20z m1535 3
c28 -7 63 -29 100 -61 52 -47 60 -51 128 -59 40 -4 80 -8 89 -9 9 0 18 -10 20
-22 2 -17 15 -27 48 -38 66 -22 70 -26 70 -79 0 -28 6 -53 13 -60 20 -16 41
-91 29 -103 -6 -6 -29 -4 -63 6 -29 9 -71 16 -94 16 -35 0 -44 4 -53 25 -6 14
-20 25 -29 25 -33 -1 -128 -27 -162 -44 -27 -14 -38 -15 -61 -6 -23 10 -36 8
-78 -10 -69 -30 -102 -12 -42 22 38 22 38 36 -1 52 l-31 13 31 22 c41 29 42
61 2 61 -58 0 -78 20 -41 40 14 7 32 7 62 0 39 -10 48 -9 91 16 55 30 64 45
49 78 -12 27 -122 86 -160 86 -14 0 -45 -11 -69 -26 -45 -26 -63 -25 -63 4 0
12 20 24 63 38 74 26 94 28 152 13z m-1171 -175 c23 -23 20 -33 -24 -85 -30
-36 -40 -56 -39 -81 1 -18 -2 -59 -6 -91 -7 -52 -12 -62 -53 -96 -37 -32 -44
-43 -38 -64 3 -13 15 -27 26 -30 48 -12 46 -109 -2 -137 -24 -13 -30 -12 -60
4 -51 28 -72 19 -78 -32 -4 -35 -11 -46 -38 -62 -51 -31 -80 -26 -124 22 -21
23 -38 45 -38 48 0 4 21 3 46 -2 54 -12 108 5 101 31 -3 9 -6 22 -8 30 -2 9 4
16 16 18 57 10 66 15 85 53 11 21 20 46 20 55 0 24 -27 29 -55 11 -25 -16 -27
-16 -63 14 -20 16 -47 30 -59 30 -24 0 -113 100 -113 127 0 8 8 28 17 44 16
27 16 29 -5 52 -19 20 -20 26 -9 41 13 18 16 17 65 -17 63 -43 131 -60 247
-61 90 -1 90 -1 90 24 0 25 -2 25 -80 26 -94 1 -172 11 -180 25 -13 20 6 26
42 13 21 -7 70 -13 108 -14 95 0 135 20 153 78 15 44 31 52 56 26z m-653 -224
c32 -18 23 -54 -28 -108 -34 -35 -65 -56 -108 -72 -54 -20 -70 -21 -160 -15
-55 5 -124 8 -152 8 -29 0 -53 3 -53 7 0 13 77 78 114 94 85 39 175 65 245 70
40 2 78 9 84 15 14 14 33 14 58 1z m1689 -105 c27 -14 59 -25 72 -25 12 0 38
-11 58 -25 l37 -26 97 47 c91 44 103 48 179 48 72 1 88 -2 128 -26 66 -39 181
-155 207 -210 29 -58 43 -70 79 -66 22 2 28 -1 28 -16 0 -10 -7 -24 -17 -29
-13 -9 -26 -3 -63 28 -47 38 -102 64 -141 65 -11 0 -24 4 -30 8 -5 5 -28 14
-52 21 -36 10 -42 15 -37 32 8 26 -19 36 -58 21 -19 -7 -36 -8 -46 -2 -14 8
-14 9 2 10 21 0 23 33 2 50 -12 10 -21 10 -41 1 -33 -15 -37 -14 -30 4 6 17
-2 45 -14 45 -19 0 -110 -64 -110 -77 0 -7 10 -17 23 -22 12 -5 31 -18 42 -30
10 -12 49 -38 86 -57 36 -19 77 -47 91 -62 31 -34 63 -110 78 -187 10 -53 9
-70 -10 -145 -22 -86 -21 -144 2 -196 8 -18 7 -29 -6 -48 -9 -14 -16 -32 -16
-40 0 -21 -28 -28 -39 -8 -13 25 -41 156 -41 193 0 18 10 58 21 91 19 52 20
64 10 115 -24 119 -59 160 -183 211 -58 24 -75 26 -208 27 -122 0 -145 2 -145
15 0 11 14 16 58 18 51 3 58 5 51 20 -4 9 -7 35 -8 57 l-1 40 -57 0 c-61 0
-94 18 -79 44 7 10 13 11 30 1 34 -18 75 -9 79 17 3 19 -5 24 -52 38 -60 17
-77 32 -55 46 20 13 24 12 79 -16z m-1622 -156 c47 -46 47 -46 28 -109 -8 -27
-11 -69 -8 -102 5 -65 -5 -84 -53 -103 -44 -17 -135 -8 -135 14 0 27 30 62 66
77 30 12 34 19 34 50 0 47 -16 74 -43 74 -28 0 -36 -6 -73 -55 -45 -58 -64
-99 -91 -195 -28 -103 -29 -141 -4 -164 29 -26 57 -9 52 31 -2 16 18 55 33 65
6 4 38 8 70 8 33 0 91 9 130 21 39 12 99 30 134 40 98 30 118 27 142 -22 26
-49 55 -50 85 -2 11 18 25 32 30 33 6 0 35 -16 65 -35 61 -38 81 -42 100 -19
11 13 10 19 -8 37 -12 12 -30 32 -42 45 -11 12 -30 22 -42 22 -21 0 -21 1 -5
17 15 15 22 16 63 5 25 -7 50 -10 55 -7 5 3 29 -3 54 -14 33 -15 57 -18 97
-14 29 3 69 1 88 -4 34 -9 35 -11 51 -89 9 -43 24 -101 33 -129 9 -27 16 -73
16 -101 0 -63 13 -77 105 -109 84 -29 124 -67 132 -123 7 -50 -3 -53 -43 -11
-47 50 -71 58 -138 48 -55 -9 -61 -8 -105 20 -25 16 -55 32 -67 35 -32 10 -64
49 -103 127 -44 87 -58 99 -103 80 -18 -8 -53 -13 -77 -12 -51 2 -81 -20 -112
-81 -10 -20 -24 -40 -31 -44 -6 -4 -54 -8 -105 -8 -80 -1 -93 1 -93 15 0 15
-19 29 -40 29 -5 0 -16 -7 -25 -16 -12 -12 -14 -27 -9 -65 7 -52 -5 -79 -35
-79 -12 0 -21 15 -30 50 -25 96 11 150 102 150 46 0 53 3 103 53 65 63 70 87
17 87 -21 0 -53 -9 -71 -20 -55 -34 -154 -22 -160 19 -3 21 -7 23 -45 17 -54
-8 -117 -53 -131 -91 -6 -17 -21 -41 -33 -53 -30 -29 -29 -48 5 -66 17 -9 40
-39 62 -82 33 -66 70 -110 117 -141 12 -8 25 -23 28 -33 13 -42 88 -31 99 14
8 33 72 76 164 109 76 28 117 33 141 18 17 -11 7 -41 -13 -41 -8 0 -23 -16
-35 -35 -11 -20 -28 -38 -36 -42 -9 -3 -31 -29 -49 -57 -31 -48 -38 -53 -92
-66 -43 -10 -67 -23 -89 -46 -17 -18 -53 -42 -80 -54 -51 -23 -161 -38 -190
-26 -27 10 0 44 43 52 101 18 131 62 72 104 -17 12 -37 34 -44 49 -8 15 -33
35 -55 45 -27 13 -41 27 -46 45 -4 14 -14 34 -22 44 -10 10 -19 44 -22 85 l-6
67 -47 0 c-26 1 -50 4 -53 7 -15 14 -95 275 -95 307 0 52 25 136 48 166 12 14
28 47 37 73 28 84 42 95 124 96 67 1 74 3 93 29 29 40 64 36 116 -14z m-688
-4 c0 -8 -16 -30 -35 -50 -49 -48 -85 -104 -85 -130 0 -12 -11 -39 -25 -59
-22 -32 -25 -48 -25 -117 0 -92 -20 -149 -46 -128 -8 6 -14 26 -14 44 0 24 -6
34 -25 43 -29 13 -31 30 -11 96 8 26 12 62 9 80 -4 28 2 40 44 89 56 66 103
106 157 135 41 22 56 21 56 -3z m250 0 c10 -12 8 -16 -12 -24 -13 -5 -30 -16
-37 -25 -11 -13 -9 -19 14 -42 30 -30 29 -40 -10 -127 -20 -44 -36 -62 -74
-86 -41 -25 -48 -33 -44 -54 4 -19 -1 -29 -22 -43 -34 -22 -76 -84 -105 -154
-13 -30 -31 -64 -42 -75 -17 -18 -19 -18 -34 -3 -16 15 -14 23 26 113 31 71
41 105 36 126 -5 27 -3 30 24 36 17 3 30 8 30 12 -1 25 -15 51 -31 56 -18 6
-18 7 0 33 11 15 27 54 36 87 22 82 33 102 65 115 15 6 40 25 56 41 22 23 36
29 70 29 24 0 47 -6 54 -15z m1227 -99 c7 -27 17 -54 23 -60 5 -5 10 -19 10
-30 0 -17 -2 -18 -17 -4 -17 15 -34 20 -113 36 -24 5 -39 16 -48 35 -20 42 -9
61 32 54 22 -3 41 0 53 9 30 23 47 12 60 -40z m698 -76 c4 -12 4 -53 0 -93 -6
-65 -4 -75 17 -106 14 -21 48 -47 87 -67 100 -51 136 -94 112 -133 -13 -21
-41 4 -41 36 0 30 -49 53 -115 53 -79 0 -108 24 -138 114 -16 48 -29 54 -57
26 -16 -16 -19 -28 -14 -55 7 -39 -7 -46 -38 -18 -36 33 -23 70 47 135 50 47
65 67 65 89 0 29 10 37 47 38 13 1 24 -7 28 -19z m792 -8 c18 -15 44 -54 58
-86 14 -31 34 -70 46 -85 18 -24 19 -32 8 -72 -11 -42 -10 -48 10 -76 15 -20
20 -37 16 -54 -12 -45 -71 -134 -105 -157 -33 -22 -35 -22 -48 -5 -8 11 -11
28 -7 43 4 14 9 48 12 75 3 28 9 54 14 60 11 11 12 59 2 69 -5 4 -8 45 -8 91
0 80 -2 86 -37 136 -29 41 -35 57 -27 71 13 24 28 22 66 -10z m-482 -65 c147
-13 228 -56 244 -129 15 -63 -10 -83 -38 -30 -6 12 -21 22 -31 22 -17 0 -20
-7 -20 -43 0 -24 5 -69 11 -100 10 -51 10 -60 -6 -77 -16 -18 -16 -20 10 -46
15 -15 34 -42 41 -60 8 -18 23 -39 35 -48 14 -9 19 -21 15 -31 -10 -27 12 -58
38 -51 28 7 66 -19 66 -44 0 -10 -11 -31 -24 -46 -23 -27 -24 -27 -49 -11 -14
9 -27 27 -29 39 -2 19 -9 23 -38 23 -32 0 -35 -2 -43 -41 -10 -51 -59 -104
-146 -157 -72 -44 -96 -84 -81 -136 8 -29 6 -32 -33 -56 -23 -13 -78 -40 -122
-60 -44 -20 -99 -45 -122 -56 -54 -24 -53 -24 -53 6 0 36 51 80 132 112 58 22
75 34 95 68 38 60 133 153 170 166 33 10 45 40 23 54 -15 9 -12 31 10 80 17
38 20 62 18 167 l-2 123 -33 31 c-18 17 -33 40 -33 51 0 26 -37 73 -57 73 -9
0 -32 15 -53 33 -20 17 -47 40 -58 49 -16 13 -22 29 -22 58 0 32 -5 43 -29 61
-19 14 -27 27 -23 38 10 29 24 29 80 3 40 -18 85 -28 157 -35z m-700 -217 c27
-14 50 -19 71 -15 29 5 34 2 58 -39 32 -56 67 -68 179 -65 99 2 198 -15 214
-37 18 -25 7 -34 -40 -32 -27 1 -70 -10 -120 -30 -63 -26 -93 -32 -152 -32
-66 0 -77 3 -121 34 -31 21 -49 41 -49 54 -1 36 -27 72 -52 72 -17 0 -23 6
-23 23 0 13 -9 32 -20 42 -47 43 -11 59 55 25z m-1632 -159 c54 -9 61 -14 96
-75 14 -24 65 -95 113 -158 58 -75 82 -114 73 -116 -21 -5 -93 41 -161 101
-109 99 -151 121 -228 127 -42 3 -71 10 -73 17 -3 7 8 25 23 40 20 20 27 36
25 57 -3 29 -3 29 41 22 23 -4 64 -11 91 -15z m1167 -80 c10 -39 85 -127 125
-148 11 -6 40 -14 65 -18 80 -12 121 -25 114 -37 -13 -20 -172 -1 -231 28 -29
14 -53 29 -53 33 0 16 -82 91 -100 91 -10 0 -22 9 -25 21 -8 23 -6 25 32 50
45 28 61 24 73 -20z m1084 -65 c68 -84 76 -152 23 -211 -22 -25 -40 -36 -53
-33 -20 4 -22 21 -9 84 5 22 1 43 -13 71 -32 62 -42 67 -128 60 l-76 -6 22 24
c20 22 38 28 145 49 44 8 54 4 89 -38z m-335 -135 c10 -33 21 -46 47 -57 18
-7 36 -19 40 -25 11 -19 -26 -39 -72 -39 -37 0 -46 5 -73 39 -43 54 -50 94
-19 115 37 27 61 17 77 -33z m-797 -8 c30 -36 28 -41 -22 -72 -86 -53 -131
-188 -85 -258 13 -20 14 -30 5 -56 -9 -27 -8 -34 7 -44 9 -7 22 -13 28 -13 33
0 119 -35 166 -66 l52 -36 178 7 c154 6 188 5 255 -11 74 -18 76 -19 43 -26
-60 -13 -270 -37 -389 -43 l-116 -7 -28 38 c-41 55 -55 64 -97 64 -32 0 -39
-4 -53 -34 -9 -19 -16 -43 -16 -55 0 -15 -6 -21 -23 -21 -41 0 -57 28 -54 101
2 60 -1 68 -28 100 -22 25 -36 60 -54 130 l-24 95 24 63 c27 71 65 115 124
141 51 24 88 24 107 3z m531 -19 c22 -19 37 -23 61 -19 28 5 34 1 64 -40 38
-52 48 -76 57 -129 l6 -38 48 4 c26 3 74 18 108 34 61 29 93 64 93 102 0 25
13 34 35 26 12 -5 15 -15 12 -33 -3 -14 1 -38 9 -53 13 -26 13 -27 -22 -38
-19 -7 -50 -27 -68 -45 -19 -18 -56 -40 -87 -50 -30 -9 -74 -28 -98 -41 -31
-17 -59 -24 -98 -24 -30 0 -63 -5 -74 -10 -10 -6 -56 -13 -101 -15 l-83 -5 75
14 c81 15 213 59 218 74 3 11 -35 102 -43 102 -4 0 -18 -14 -32 -30 -35 -42
-94 -70 -146 -70 -23 0 -49 -6 -55 -12 -7 -7 -34 -20 -60 -28 -33 -11 -46 -20
-44 -32 2 -13 -12 -17 -87 -23 -61 -5 -96 -3 -110 5 -24 12 -24 29 0 40 8 4
52 25 99 48 94 44 169 76 215 90 52 15 39 41 -32 65 -60 20 -63 20 -82 3 -11
-10 -52 -28 -93 -41 -40 -13 -99 -33 -130 -44 -32 -12 -72 -21 -89 -21 -29 0
-31 2 -25 26 9 34 54 101 73 108 8 3 25 3 38 0 16 -4 49 5 96 27 93 43 162 45
234 9 33 -17 55 -36 65 -58 17 -36 43 -41 90 -17 54 28 36 62 -40 79 -22 5
-80 71 -80 91 0 14 54 -7 83 -31z m-1624 -38 c14 -34 30 -50 62 -66 65 -34 81
-57 74 -109 -3 -25 -7 -46 -9 -49 -5 -4 -55 31 -128 92 -38 31 -48 46 -53 80
-7 42 7 96 24 96 6 0 19 -20 30 -44z m556 -363 c148 -65 154 -69 172 -110 20
-48 6 -62 -45 -44 -96 34 -414 209 -409 226 2 5 14 12 28 15 27 7 83 -12 254
-87z"/>
<path d="M2173 1439 c-12 -4 -26 -16 -32 -27 -17 -33 21 -70 104 -102 53 -20
90 63 43 94 -45 29 -92 44 -115 35z"/>
<path d="M3216 3880 c-56 -36 -136 -123 -161 -174 -29 -60 -49 -136 -70 -261
-22 -127 -61 -299 -85 -374 -23 -73 -17 -92 24 -73 17 7 41 43 75 112 44 87
50 106 45 143 -4 33 2 61 30 134 20 51 36 104 36 119 0 25 50 187 69 223 5 9
44 37 86 61 l76 45 -37 33 c-44 37 -49 38 -88 12z"/>
<path d="M3343 3732 c-40 -33 -113 -130 -113 -150 0 -20 -96 -257 -132 -325
-27 -51 -30 -60 -18 -81 11 -21 8 -31 -24 -85 -20 -34 -36 -66 -36 -70 0 -11
25 -21 49 -21 20 0 61 40 61 58 0 7 11 18 25 24 28 13 92 129 80 147 -3 6 -15
11 -26 11 -25 0 -24 20 1 48 11 12 20 24 20 28 0 4 21 57 46 118 47 112 79
156 114 156 10 0 22 5 25 10 11 19 51 10 76 -16 13 -14 36 -32 52 -40 38 -20
34 -39 -13 -58 -36 -14 -90 -77 -90 -104 0 -5 25 -33 56 -62 51 -49 58 -52 94
-47 45 6 74 -10 69 -39 -6 -28 -52 -30 -111 -4 -27 12 -64 20 -81 18 -31 -3
-32 -4 -32 -53 0 -27 -6 -63 -14 -78 -12 -23 -13 -36 -2 -78 12 -45 11 -52 -4
-70 -11 -11 -18 -36 -19 -63 -1 -37 4 -50 31 -78 17 -18 35 -46 39 -63 13 -57
34 -86 57 -83 20 3 22 8 19 66 -2 38 0 62 7 62 14 0 57 -59 66 -90 16 -53 59
-77 84 -46 10 11 9 21 -3 45 -20 38 -20 51 0 51 15 0 65 -97 79 -153 12 -45
95 -63 95 -21 0 10 -27 66 -61 126 -60 106 -62 109 -107 121 -37 10 -54 23
-90 67 -62 78 -77 111 -65 146 5 16 16 29 23 29 7 0 29 -31 49 -69 25 -51 60
-96 130 -165 112 -112 144 -167 172 -291 22 -104 34 -128 67 -137 40 -10 48
10 29 70 -9 29 -20 74 -23 99 -4 25 -18 65 -33 89 -75 123 -108 168 -140 190
-19 13 -43 33 -54 44 -29 30 -78 138 -67 149 17 17 37 -3 72 -71 35 -66 75
-102 99 -88 15 10 2 62 -32 122 -18 33 -29 67 -29 92 0 33 -5 44 -33 65 -28
22 -32 30 -29 59 5 42 -26 70 -103 92 -65 19 -90 37 -82 59 9 23 58 20 158 -9
67 -20 91 -32 116 -61 44 -48 50 -72 24 -90 -12 -9 -21 -23 -21 -34 0 -18 30
-103 98 -275 19 -49 42 -115 50 -145 7 -30 22 -72 32 -93 10 -21 28 -81 40
-135 12 -53 27 -103 33 -111 8 -9 24 -11 50 -8 21 3 40 7 42 9 10 9 -51 298
-81 388 -55 161 -213 469 -290 565 -151 188 -223 269 -280 315 -55 45 -67 50
-110 50 -38 0 -56 -6 -81 -28z"/>
</g>
</svg>
